<mxfile host="app.diagrams.net" modified="2023-07-08T03:44:11.101Z" agent="Mozilla/5.0 (Windows NT 10.0; Win64; x64) AppleWebKit/537.36 (KHTML, like Gecko) Chrome/99.0.4844.51 Safari/537.36" version="21.5.0" etag="jrecmMkQTTwDADI6kNS0" type="github">
  <diagram name="Page-1" id="NgUdqzA_we3dc_CNwoxK">
    <mxGraphModel>
      <root>
        <mxCell id="0" />
        <mxCell id="1" parent="0" />
      </root>
    </mxGraphModel>
  </diagram>
</mxfile>
